<svg xmlns="http://www.w3.org/2000/svg" viewBox="0 0 316.74 185.56"><defs><style>.cls-1{fill:#fff;}</style></defs><g id="Layer_2" data-name="Layer 2"><g id="Layer_1-2" data-name="Layer 1"><path class="cls-1" d="M6.1,115.27H37.24v2.3q0,8.67,5.58,13.05T58.3,135q9.83,0,15.08-3.89a12.26,12.26,0,0,0,5.27-10.35q0-7.26-5-11t-23.35-8.32q-20-4.86-31.23-14.2T7.87,61.84q0-17.79,13.54-28T57.5,23.62q22.47,0,36.14,10.53t13.67,28.48V65.2H76.7V63.08q0-7.61-4.78-12.21t-14.33-4.6q-9.47,0-13.93,3.49a11.43,11.43,0,0,0-4.47,9.51,9.79,9.79,0,0,0,4.87,9Q48.92,71.21,67.15,76q19.63,5.15,31.14,14.6t11.59,27.51q0,19.11-14.2,29.29T58.3,157.56q-22.92,0-37.55-10T6.1,117.93Z" transform="translate(-6.1 -23.62)"/><path class="cls-1" d="M119.31,26.19h87.23V49H149.83V82.27h49.8v22.48h-49.8V155H119.31Z" transform="translate(-6.1 -23.62)"/><path class="cls-1" d="M210.39,86.61q0-31.32,16.24-47.15t43-15.84q24.49,0,38.79,11.68t14,29.81v1.33H291.69V65.38a17.62,17.62,0,0,0-5.75-13.49q-5.74-5.36-17.51-5.36-12.12,0-19.42,8.76t-7.3,27.52V98.38q0,19.37,8.14,27.91t21.85,8.53a40.58,40.58,0,0,0,11.46-1.41,32,32,0,0,0,9.33-4.69V108.2H269.93V86h52.55v52.82q-6.9,7.06-19.6,12.91t-31.27,5.84q-28.76,0-45-15.84T210.39,94.57Z" transform="translate(-6.1 -23.62)"/><path class="cls-1" d="M6.88,177.51h2.2l5.36,20.82c.71,2.84,1.43,5.43,2,8.14h.26c.71-2.71,1.42-5.3,2.13-8.14l5.36-20.82h2.72l5.36,20.82c.71,2.84,1.43,5.43,2.14,8.14h.26c.71-2.71,1.42-5.3,2.06-8.14L42,177.51h2.07l-8.27,30.9H33.12l-5.3-20.17c-.77-3-1.35-5.81-2.19-8.79h-.26c-.71,3-1.3,6-2.2,8.92l-5.17,20H15.28Z" transform="translate(-6.1 -23.62)"/><path class="cls-1" d="M46.83,193c0-10.09,7.37-16.29,15.38-16.29,8.28,0,13.71,5.3,13.71,14.22a11.84,11.84,0,0,1-.13,2.07H47.48v-1.81H75.27l-1.16,1c0-9.31-4.92-13.7-11.9-13.7-6.72,0-13.31,5.3-13.31,14.35,0,9.31,6.59,14.48,14.09,14.48a18,18,0,0,0,10.73-3.49l.9,1.68A19.69,19.69,0,0,1,63,209.19C54.2,209.19,46.83,203.11,46.83,193Z" transform="translate(-6.1 -23.62)"/><path class="cls-1" d="M86.39,204.92h-.13L86,208.41H84.32V161.74h1.94v13.84l-.13,6.85h.13c3.23-3.36,7.88-5.69,12-5.69,8.86,0,13.19,6.2,13.19,15.77,0,10.47-6.79,16.68-14.48,16.68C93.82,209.19,89.56,207.51,86.39,204.92Zm23-12.41c0-7.89-3.17-14-11.25-14-3.42,0-7.75,1.94-11.89,6.07v17.84c3.88,3.56,8.21,4.92,10.86,4.92C104.23,207.38,109.4,201.17,109.4,192.51Z" transform="translate(-6.1 -23.62)"/><path class="cls-1" d="M128.79,205.44a3.38,3.38,0,1,1,3.36,3.75A3.44,3.44,0,0,1,128.79,205.44Z" transform="translate(-6.1 -23.62)"/><path class="cls-1" d="M154.13,193c0-10.34,7.5-16.29,16.68-16.29a15,15,0,0,1,11.05,4.78l-1.29,1.42c-2.65-2.58-5.76-4.39-9.76-4.39-8.66,0-14.61,5.95-14.61,14.48s5.82,14.35,14.61,14.35a15.36,15.36,0,0,0,10.73-4.66l1.16,1.42a16.76,16.76,0,0,1-11.89,5.05C161.24,209.19,154.13,203.24,154.13,193Z" transform="translate(-6.1 -23.62)"/><path class="cls-1" d="M188.39,193c0-10.34,6.79-16.29,14.87-16.29s14.86,5.95,14.86,16.29-6.78,16.16-14.86,16.16S188.39,203.24,188.39,193Zm27.67,0c0-8.53-5.43-14.48-12.8-14.48s-12.8,5.95-12.8,14.48,5.43,14.35,12.8,14.35S216.06,201.56,216.06,193Z" transform="translate(-6.1 -23.62)"/><path class="cls-1" d="M235.45,205.44a3.38,3.38,0,1,1,3.36,3.75A3.44,3.44,0,0,1,235.45,205.44Z" transform="translate(-6.1 -23.62)"/><path class="cls-1" d="M259.62,207.38,285,179.32H262.34v-1.81h25.72v1l-25.33,28h26.11v1.81H259.62Z" transform="translate(-6.1 -23.62)"/><path class="cls-1" d="M296.73,200.85c0-6.92,7.11-10.15,24.17-11.7,0-5.43-2.07-10.6-9.57-10.6-4.91,0-9.63,2.58-12,4.39l-1-1.55c2.2-1.68,7.63-4.65,13.18-4.65,8.21,0,11.38,5.43,11.38,11.63v20h-1.68l-.26-4.78h-.13c-3.62,2.91-8.53,5.56-13.18,5.56C302.16,209.19,296.73,206.73,296.73,200.85Zm24.17.58v-10.6c-16.67,1.55-22.1,4.65-22.1,9.95,0,4.79,4.52,6.6,8.92,6.6C311.85,207.38,316.25,205.37,320.9,201.43Z" transform="translate(-6.1 -23.62)"/></g></g></svg>